<?xml version="1.0" encoding="UTF-8"?>
<svg id="Camada_1" data-name="Camada 1" xmlns="http://www.w3.org/2000/svg" viewBox="0 0 524.67 418.27">
  <defs>
    <style>
      .cls-1 {
        fill: #f2f2f2;
      }

      .cls-2 {
        fill: #e6e6e6;
      }

      .cls-3 {
        fill: #fff;
      }

      .cls-4 {
        fill: #fcaf17;
      }

      .cls-5 {
        fill: #a0616a;
      }

      .cls-6 {
        fill: #ccc;
      }

      .cls-7 {
        fill: #161616;
      }
    </style>
  </defs>
  <path class="cls-1" d="M442.17,400.48c2.07,.13,3.21-2.44,1.64-3.93l-.16-.62s.04-.1,.06-.15c1.23-2.94,4.63-4.33,7.57-3.11,9.31,3.85-.52,12.7,.22,18.69,.26,2.07,8.35,2.18,7.9,4.21,4.3-9.41,6.57-19.69,6.56-30.02,0-2.6-.14-5.19-.44-7.78-.24-2.12-.57-4.22-1-6.31-2.31-11.28-7.31-22.02-14.51-30.98-3.46-1.89-1.35-4.85-3.1-8.4-.63-1.28-6.22-1.31-6.45-2.71,.25,.03,3.86-3.72,2.67-5.58-.79-1.22-.54-2.78,.47-3.82,.1-.1,.19-.21,.28-.33,2.98-4.04,7.09-3.34,9.24,2.15,4.58,2.31,4.63,6.15,1.82,9.84-1.79,2.35-2.03,5.52-3.6,8.04,.16,.21,.33,.41,.49,.61,2.96,3.8,5.52,7.88,7.69,12.17-.61-4.77,.29-10.51,1.82-14.21,1.76-4.25,5.07-7.82,7.97-11.5,3.46-4.39,10.51-2.4,11.12,3.16,0,.05,.01,.11,.02,.16-.43,.24-.85,.5-1.26,.77-2.34,1.55-1.53,5.17,1.24,5.6h.06c-.15,1.55-5.63,6.42-6.02,7.92,3.71,14.31,.93,16.2-10.47,16.44l-.6,.85c1.08,3.11,1.95,6.29,2.6,9.51,.61,2.99,1.04,6.01,1.28,9.05,.3,3.83,.27,7.68-.05,11.5l.02-.14c.82-4.21,3.1-8.15,6.42-10.87,4.94-4.06,11.93-5.56,17.27-8.83,2.57-1.57,5.86,.46,5.41,3.44l-.02,.14c-.79,.32-1.57,.7-2.32,1.12-.43,.24-.85,.5-1.26,.77-2.34,1.55-1.53,5.18,1.24,5.6h.06s.08,.02,.13,.03c-1.36,3.24-14.34,7.8-16.71,10.39-2.31,12.5-1.18,12.13-11.81,8.49h0c-1.16,5.06-2.86,10.01-5.04,14.73h-18.02c-.06-.19-.12-.4-.18-.6,1.67,.1,3.35,0,4.99-.3-1.34-1.64-2.68-3.29-4.01-4.93-.03-.03-.06-.06-.08-.1l-.02-.03-1.86-6.11c.15-1.35,.39-2.7,.71-4.02h0s0,0,0,0h0Z"/>
  <path class="cls-7" d="M251.74,416.42l-159.46,.06c-8.01,0-15.19-4.14-19.19-11.07-2-3.47-3.01-7.27-3.01-11.08,0-3.81,1-7.61,3-11.08l79.68-145.05c4-6.94,11.18-11.08,19.19-11.09s15.19,4.14,19.19,11.07l79.79,145.01c2,3.46,3,7.26,3,11.06,0,3.8-1,7.61-3,11.08-4,6.94-11.18,11.08-19.19,11.09h0Zm-179.65-22.1c0,3.46,17.6-4,19.42-.85,3.65,6.31-6.51,21,.78,21,0,0,173.27-3.83,176.91-10.14,1.82-3.16,2.73-6.62,2.73-10.08s-.91-6.92-2.74-10.08l-79.79-145.01c-3.64-6.29-10.16-10.06-17.45-10.06-7.28,0-99.86,161.75-99.86,165.21h0Z"/>
  <path class="cls-7" d="M253.52,414.42c-2,4,91.61,2.77,92.72,2.77,0,0,26.31-.58,26.86-1.54,.28-.48,.41-1.01,.41-1.53s-.14-1.05-.42-1.53l-12.12-22.02c-.55-.96-1.54-1.53-2.65-1.53-.05,0-.11,.04-.2,.12-16.16,14.44-36.08,23.99-57.76,24.31-23.05,.34-46.73,.69-46.86,.94h0Z"/>
  <path class="cls-6" d="M0,417.08c0,.66,.53,1.19,1.19,1.19l522.29-.18c.66,0,1.19-.53,1.19-1.19,0-.66-.53-1.19-1.19-1.19l-522.29,.18C.53,415.89,0,416.42,0,417.08H0Z"/>
  <g>
    <polygon class="cls-5" points="403.88 411.31 394.83 411.31 390.52 376.42 403.87 376.42 403.88 411.31"/>
    <path class="cls-7" d="M372.89,411.11h0c-.28,.47-.43,2.01-.43,2.56h0c0,1.7,1.38,3.07,3.07,3.07h28.01c1.16-.01,2.09-.95,2.09-2.1v-1.17s1.38-3.51-1.47-7.82c0,0-3.54,3.38-8.84-1.91l-1.56-2.83-11.31,8.28-6.27,.77c-1.37,.17-2.59-.03-3.29,1.16h0Z"/>
  </g>
  <g>
    <polygon class="cls-5" points="369.2 381.47 360.63 384.37 345.37 352.7 358.01 348.42 369.2 381.47"/>
    <path class="cls-7" d="M339.78,391.21h0c-.11,.54,.24,2.04,.41,2.56h0c.54,1.61,2.29,2.47,3.89,1.92l26.53-8.98c1.1-.37,1.68-1.56,1.31-2.66l-.37-1.1s.19-3.76-3.9-6.94c0,0-2.27,4.34-8.99,1.02l-2.39-2.18-8.06,11.46-5.69,2.74c-1.24,.6-2.46,.8-2.75,2.16h0s0,0,0,0Z"/>
  </g>
  <polygon class="cls-7" points="355.23 179.09 337.68 237.19 316.97 289.45 349.76 364.09 361.92 358.68 347.37 290.12 377.88 243.59 392.11 388.83 404.27 388.15 420.76 212.84 423.11 174.68 355.23 179.09"/>
  <path class="cls-2" d="M408.21,50.39l-25.67,4.74-2.02,11.48-15.53,7.44-8.08,84.44s-13.5,17.57-2.69,22.97l68.9-6.78s3.37-12.49,0-13.68-3.39-31.02-3.39-31.02l15.52-61.37-22.97-8.1-4.06-10.13h0Z"/>
  <circle class="cls-5" cx="393.07" cy="29.44" r="20.73"/>
  <path class="cls-7" d="M406.8,32.51c-1.65,.91-.08,5.23-1.12,5.6-1.19,.43-5.55-4.53-5.61-10.08-.02-1.68,.37-2.49,0-4.48-.49-2.61-1.98-5.68-3.36-5.6-.82,.05-1.62,1.21-1.68,2.24-.08,1.45,1.32,2.02,1.12,2.8-.39,1.49-6.3,2.51-8.4,0-1.65-1.97-.38-5.42-1.12-5.6-.54-.13-1.13,1.77-3.36,3.92-.84,.81-2.09,2.01-2.8,1.68-1.02-.48-.28-3.88-.56-3.92-.23-.04-.38,2.35-1.68,4.48-1.67,2.74-5.11,4.85-6.72,3.92-.98-.57-1.06-2.16-1.12-3.36-.12-2.54-3.81-8.38-2.86-11.09,1.94-5.53,5.27-1.63,6.78-3.48,2.04-2.5,3.87-1.15,7.28-3.92,3.34-2.71,3.37-5.43,5.6-5.6,2.01-.16,2.73,1.99,5.04,1.68,1.96-.26,2.39-1.92,3.92-1.68,1.4,.22,1.5,1.69,3.36,2.24,1.19,.35,1.45-.16,2.8,0,2.81,.33,4.69,2.88,5.04,3.36,1.36,1.85,.83,2.62,2.24,4.48,1.22,1.6,3.91,.92,4.92,1.72,3.31,2.61,4.73,7.43,4.76,12.93,.02,3.84-.48,5.78-1.6,10.64-.85,3.68-4.78,8.44-6.95,10.57-.58,.57-2.21,2.17-3.36,1.68-1.09-.46-1.12-2.53-1.12-2.8,0-.94,.25-2.1,2.24-5.04,2.09-3.09,2.93-3.44,2.8-4.48-.22-1.84-3.16-3.52-4.48-2.8,0,0,0,0,0,0Z"/>
  <g>
    <path class="cls-5" d="M334.49,225.76c-.65,5.4,1.62,10.12,5.06,10.53s6.75-3.64,7.39-9.04c.28-2.36,0-4.6-.68-6.4l2.45-22.93-10.78-.92-1.27,22.7c-1.09,1.59-1.88,3.69-2.17,6.06h0Z"/>
    <path class="cls-2" d="M365.49,73.5s-5.59,.08-9.29,7.3c-1.97,3.84-12.48,75.63-12.48,75.63l-9.69,58.81,16.5,.08,12.86-55.69,10.82-32.3-8.72-53.83h0Z"/>
  </g>
  <path class="cls-5" d="M411.93,217.13c-1.58,5.21-.18,10.24,3.14,11.25s7.28-2.4,8.86-7.61c.69-2.28,.81-4.53,.45-6.42l6.42-22.15-10.46-2.79-5.22,22.13c-1.35,1.37-2.5,3.3-3.19,5.58h0s0,0,0,0Z"/>
  <path class="cls-2" d="M423.42,69.63s8.1-6.08,14.86,3.37c6.76,9.45,9.49,87.14,9.49,87.14l-18.9,47.97-14.19-4.72,13.49-58.77-23.66-44.58,18.9-30.4h0Z"/>
  <g>
    <circle class="cls-4" cx="218.48" cy="311.43" r="73"/>
    <g>
      <circle class="cls-3" cx="218.49" cy="349.48" r="6.7"/>
      <path class="cls-3" d="M218.46,266.68c-.62,4.09,.49,4.95,.49,22.59s3.67,41.29-.47,41.29-5.65-48.8-20.02-53.12c-16.89-5.08,21.99-23.99,19.99-10.75h0Z"/>
    </g>
  </g>
  <path class="cls-7" d="M120.5,348.7l-6.6,13.94c7.97-5.72,20.43-10.65,30.34-13.29-9.23-4.46-20.53-11.65-27.28-18.77l3.79,14.72c-44.47-9.06-76.41-43.18-76.42-82.26l-1.61-.55c.01,40.82,31.51,76.96,77.78,86.21Z"/>
</svg>