<svg width="29" height="36" viewBox="0 0 29 36" fill="none" xmlns="http://www.w3.org/2000/svg">
<path d="M25.1183 31.3991C25.4101 31.8328 25.8123 32.2587 26.3407 32.6767C26.8612 33.0946 27.3107 33.4022 27.6814 33.5994C28.052 33.7965 28.2413 33.8833 28.2413 33.8517V34.8533C28.2413 35.0189 28.1703 35.1688 28.0205 35.3028C27.8707 35.4369 27.6972 35.5 27.4921 35.5H20.2445C19.6215 35.5 19.2035 35.2871 18.9984 34.8533L12.0584 21.8486L10.0552 24.948V31.2492C10.0552 31.817 10.276 32.3139 10.7098 32.7476C11.1514 33.1814 11.5773 33.4653 11.9874 33.5994L12.6735 33.8517V34.8533C12.6735 35.0189 12.5868 35.1688 12.4211 35.3028C12.2555 35.4369 12.0662 35.5 11.8612 35.5H0.812303C0.559937 35.5 0.362776 35.4369 0.22082 35.3028C0.0709779 35.1688 0 35.0189 0 34.8533V33.8517C0.0394322 33.8517 0.0709779 33.8438 0.0946372 33.8281C0.118297 33.8123 0.189274 33.7808 0.315457 33.7256C0.44164 33.6782 0.567823 33.623 0.694006 33.5757C0.820189 33.5284 0.954259 33.4574 1.1041 33.3785C1.24606 33.2918 1.3959 33.205 1.53785 33.1025C1.67981 33 1.82177 32.8896 1.94795 32.7555C2.07413 32.6215 2.18454 32.4795 2.29495 32.3297C2.39748 32.1798 2.48423 32.0142 2.54732 31.8328C2.61041 31.6514 2.64196 31.4543 2.64196 31.2571V4.75079C2.64196 4.18297 2.42114 3.68612 1.98738 3.25237C1.54574 2.81861 1.11987 2.5347 0.709779 2.40063L0.0236593 2.14826V1.14669C0 0.949527 0.0709779 0.791798 0.22082 0.673502C0.362776 0.555205 0.567823 0.5 0.812303 0.5H8.99842C9.7082 0.5 10.0631 0.783912 10.0631 1.35174V14.9479L18.4937 1.14669C18.7461 0.712934 19.1562 0.5 19.7476 0.5H26.7429C26.948 0.5 27.1372 0.570978 27.3028 0.697161C27.4685 0.83123 27.5552 0.981073 27.5552 1.14669V2.14826C26.0095 2.81861 24.9527 3.64669 24.3691 4.64827L16.9322 16.7934L25.1183 31.3912V31.3991Z" fill="#F4F4F5"/>
</svg>
