<?xml version="1.0" encoding="UTF-8"?>
<svg id="Camada_1" data-name="Camada 1" xmlns="http://www.w3.org/2000/svg" viewBox="0 0 920.3 515.09">
  <defs>
    <style>
      .cls-1 {
        fill: #e6e6e6;
      }

      .cls-2 {
        fill: #fff;
      }

      .cls-3 {
        fill: #fcaf17;
      }

      .cls-4 {
        fill: #feb8b8;
      }

      .cls-5 {
        fill: #ccc;
      }

      .cls-6 {
        fill: #161616;
      }

      .cls-7 {
        fill: #3f3d56;
      }
    </style>
  </defs>
  <path id="a935b196-91fc-4d65-bd04-49275a33d175-43" class="cls-1" d="M193.68,513.13H53.08s-2.85-41.8,14.01-42.28,14.96,18.53,36.1-7.6,46.79-24.7,50.11-9.26-6.41,27.79,11.4,23.99,43.46,6.17,28.98,35.15Z"/>
  <path id="af9a6d89-7824-4af5-a475-6980c18ad0f3-44" class="cls-2" d="M121.01,513.14l-.48-.02c1.11-27.52,6.87-45.2,11.51-55.19,5.04-10.84,9.89-15.23,9.94-15.28l.32,.35s-4.85,4.39-9.84,15.16c-4.61,9.94-10.35,27.55-11.45,54.97Z"/>
  <path id="ae138407-70d7-43ff-b006-9d3240c337f6-45" class="cls-2" d="M171.89,513.19l-.46-.13c3.54-11.66,9.91-22.27,18.55-30.86l.32,.35c-8.58,8.54-14.9,19.06-18.41,30.64Z"/>
  <path id="a7d931fe-d47e-4aa5-ae01-a0d26a3448cc-46" class="cls-2" d="M75.22,513.16l-.47-.07c1.53-10.32-.09-20.86-4.65-30.24-1.87-3.93-4.35-7.55-7.34-10.72l.33-.34c3.03,3.2,5.54,6.86,7.44,10.85,4.61,9.47,6.24,20.1,4.69,30.51Z"/>
  <path id="b274f1e0-b558-44b1-a0b2-dcd77bbddb14-47" class="cls-6" d="M212.76,513.76H37.91l-.04-.59c-.1-1.47-2.33-36.23,8.93-48.63,2.26-2.65,5.53-4.22,9.01-4.33,7.34-.21,11.95,2.54,15.67,4.75,7.01,4.16,11.65,6.91,28.49-13.91,18.25-22.55,37.94-27.41,49.25-24.71,7.31,1.74,12.35,6.67,13.83,13.52,1.4,6.48,.95,12.58,.59,17.47-.38,5.24-.68,9.38,1.47,11.25,1.8,1.57,5.38,1.71,11.28,.45,12-2.56,28.75-.37,37.15,10.49,4.52,5.84,8.08,16.46-.62,33.88l-.18,.35Zm-173.65-1.27H211.97c6.49-13.16,6.69-24.29,.58-32.18-7.71-9.96-23.89-12.59-35.88-10.03-6.41,1.37-10.23,1.14-12.38-.73-2.63-2.29-2.31-6.71-1.9-12.3,.35-4.82,.79-10.81-.57-17.11-1.37-6.35-6.06-10.93-12.88-12.55-10.96-2.61-30.1,2.18-47.97,24.27-17.53,21.67-22.82,18.54-30.13,14.2-3.77-2.23-8.04-4.77-14.99-4.57-3.13,.1-6.08,1.52-8.11,3.91-10.12,11.15-8.88,42.4-8.64,47.1h0Z"/>
  <path id="bca7d782-7e31-494e-97b0-f49b8df7894d-48" class="cls-6" d="M784.06,514.47h-172.22l-.03-.97-8.22-235.18h188.73l-8.25,236.15Zm-170.28-2h168.35l8.12-232.15h-184.59l8.12,232.15Z"/>
  <g id="e7d5632f-8461-4dcf-9cd9-df8e3f64d5e2">
    <rect id="ad932c98-7027-4b28-8e73-a76d8a4136e0" class="cls-6" x="639.83" y="321.9" width="13.1" height="162.1"/>
    <rect id="ae1e5d8b-7977-4a56-a24c-fbb057f76b38" class="cls-6" x="691.4" y="321.9" width="13.1" height="162.1"/>
    <rect id="bffa0855-fc38-45cc-9e39-6daa1d3e4103" class="cls-6" x="742.98" y="321.9" width="13.1" height="162.1"/>
  </g>
  <path class="cls-6" d="M901.75,347.38l-.85-.53-213.91-135.18,18.56-29.36,.85,.53,213.91,135.18-18.55,29.36Zm-212-136.34l211.38,133.58,16.42-25.98-211.38-133.58-16.42,25.98Z"/>
  <path id="b31113e7-cae2-4653-b248-af5e4acb0a6c-49" class="cls-6" d="M850.1,200.77c-17.95-11.36-41.71-6.02-53.06,11.93-4.92,7.77-6.89,17.04-5.56,26.14l10.2,6.45c-6.63-15.39,.47-33.24,15.87-39.87,15.39-6.63,33.24,.47,39.87,15.87,6.63,15.39-.47,33.24-15.87,39.87-3.45,1.48-7.14,2.32-10.89,2.45l10.2,6.45c20.31-6.23,31.71-27.75,25.48-48.05-2.7-8.79-8.46-16.32-16.23-21.23h0Z"/>
  <rect id="bbfb7505-c422-4cd7-b125-b9dee40ff3b1" class="cls-7" y="513.09" width="909" height="2"/>
  <g id="b91459ce-423d-4e92-a857-d0ba85dc07c7">
    <path id="bc369f15-2cd9-428d-9eec-3a8fd8cc1bba-50" class="cls-4" d="M397.04,499.44h-14.56l-6.93-56.17h21.5v56.17Z"/>
    <path id="fafca8b8-1a63-4513-a3fa-e64917847011-51" class="cls-6" d="M354.39,512.96h45.77v-17.68h-28.33c-9.63,0-17.44,7.81-17.44,17.44h0v.24Z"/>
    <path id="a38ea43e-f1b1-406e-84c8-61e7480f01b4-52" class="cls-4" d="M391.92,412.39l10.05,10.54,45.45-33.73-14.83-15.56-40.67,38.74Z"/>
    <path id="b5ba90e2-8a51-4a77-95c4-5b486c8770ec-53" class="cls-6" d="M412.31,427.77l-19.55-20.51-12.8,12.2,31.58,33.14,.18-.17c6.97-6.65,7.24-17.69,.59-24.66h0Z"/>
    <path id="b1536285-e66e-494f-8c4f-a2304265e4c3-54" class="cls-4" d="M290.55,258.5c-3.48-5.6-1.76-12.97,3.84-16.45,.6-.37,1.22-.69,1.88-.95l57.18-145.73,22.29,13.35-63.52,139.8c2.05,6.31-1.41,13.08-7.72,15.13-5.28,1.71-11.05-.42-13.95-5.15h0Z"/>
    <path id="acd6249e-4699-4411-813c-091b3a750afe-55" class="cls-4" d="M507.58,268.94c-6.58-.47-11.53-6.19-11.06-12.77,.05-.7,.16-1.4,.34-2.08l-84.35-131.87,23.89-10.2,75.84,133.52c6.31,2.04,9.77,8.81,7.73,15.12-1.71,5.29-6.83,8.72-12.38,8.28h0Z"/>
    <path id="ece4d731-f277-435f-bbc1-e3b70679d22f-56" class="cls-6" d="M354,243.9l14.93,221.91,35.68-3.15,7.35-163.72,19.94,70.31,43.03,3.15-17.03-139-103.9,10.49Z"/>
    <path id="b91f5bf0-a8c5-41a2-a26e-8e2fd84207c6-57" class="cls-6" d="M438.2,358.77l-6.3,10.49-44.07,30.43,31.48,16.79s60.87-33.58,55.62-44.08l-36.73-13.64Z"/>
    <path id="b0b7866d-f3ba-460a-97cc-8103175b89de-58" class="cls-5" d="M322.76,154.12l12.42-35c5.58-15.73,17.22-28.57,32.33-35.67h0c16.81-6.19,35.1-7.19,52.48-2.87l4.52,1.12c12.05,2.92,23.35,8.38,33.13,16,7.65,6.03,14.54,13.67,15.15,21.89,0,.02,0,.03,.02,.05,2.12,9.29,3.17,57.57,3.17,57.57h-18.7l2.96,65.07-.24-.47s-107.86,20.41-107.86,9.92v-67.17l-2.21-24.32-27.17-6.12Z"/>
    <circle id="bd3b9138-8795-4826-98b2-48d72249760b" class="cls-4" cx="423.43" cy="41.59" r="29.89"/>
    <path id="e83e2647-99b5-4c80-ac3e-9e5d1f9bc81d-59" class="cls-6" d="M427.91,28.19l23.21,.93c2.92,0,6.11-.11,8.33-2,3.35-2.85,2.79-8.23,.99-12.24C455.44,3.7,444.29-.31,432.04,.02s-25.08,4.48-31.67,14.8-8.38,23.35-5.89,35.34c5.84-12.41,17.84-20.78,31.51-21.97h1.93Z"/>
  </g>
  <g id="ff061cc6-72bd-494d-9c36-32e4a4020cd7">
    <path id="bc404282-8d4f-43f7-bc12-02f97785eba1-60" class="cls-3" d="M565.72,320.54l-84-58.87c-1.62-1.14-2.02-3.39-.88-5.01l65.93-94.07c1.14-1.62,3.39-2.02,5.01-.88l84,58.87c1.62,1.14,2.02,3.39,.88,5.01l-65.93,94.07c-1.14,1.63-3.39,2.02-5.02,.88Z"/>
    <path id="ae4af9f3-88ec-4cab-9b9e-a4fc234f7062-61" class="cls-2" d="M584.61,256.66l-49.29-34.55c-2.4-1.68-2.98-4.98-1.3-7.38,1.68-2.4,4.98-2.98,7.38-1.3,0,0,0,0,0,0l49.29,34.55c2.4,1.68,2.98,4.99,1.3,7.38-1.68,2.4-4.98,2.98-7.38,1.3h0Z"/>
    <path id="fe48f3fd-992f-41c2-af3b-c30882e26a16-62" class="cls-2" d="M573.3,272.8l-49.29-34.55c-2.4-1.68-2.98-4.98-1.3-7.38,1.68-2.4,4.98-2.98,7.38-1.3,0,0,0,0,0,0l49.29,34.55c2.4,1.68,2.98,4.99,1.3,7.38-1.68,2.4-4.98,2.98-7.38,1.3Z"/>
    <path id="e216638f-22ba-49ea-a46c-300c78c4e875-63" class="cls-2" d="M561.87,289.12l-49.29-34.55c-2.4-1.68-2.98-4.98-1.3-7.38,1.68-2.4,4.98-2.98,7.38-1.3,0,0,0,0,0,0l49.29,34.55c2.4,1.68,2.98,4.99,1.3,7.38-1.68,2.4-4.98,2.98-7.38,1.3h0Z"/>
    <path id="ee43e3d8-5f22-4b53-a964-043fec166479-64" class="cls-2" d="M584.48,224.73l-19.09-13.38c-2.4-1.68-2.98-4.98-1.3-7.38,1.68-2.4,4.98-2.98,7.38-1.3,0,0,0,0,0,0l19.09,13.38c2.4,1.68,2.98,4.99,1.3,7.38-1.68,2.4-4.98,2.98-7.38,1.3Z"/>
  </g>
</svg>