<?xml version="1.0" encoding="UTF-8"?>
<svg id="Camada_2" data-name="Camada 2" xmlns="http://www.w3.org/2000/svg" viewBox="0 0 31.88 31.94">
  <defs>
    <style>
      .cls-1 {
        fill: #fcaf17;
      }
    </style>
  </defs>
  <rect class="cls-1" y=".06" width="31.88" height="31.88" rx="2.9" ry="2.9"/>
  <path d="M22.24,23.67c.17,.25,.4,.49,.7,.73,.3,.24,.56,.42,.77,.53,.21,.11,.32,.16,.32,.14v.57c0,.09-.04,.18-.13,.26-.09,.08-.19,.11-.3,.11h-4.15c-.36,0-.6-.12-.71-.37l-3.97-7.45-1.15,1.77v3.61c0,.33,.13,.61,.37,.86,.25,.25,.5,.41,.73,.49l.39,.14v.57c0,.09-.05,.18-.14,.26-.09,.08-.2,.11-.32,.11h-6.33c-.14,0-.26-.04-.34-.11-.09-.08-.13-.16-.13-.26v-.57s.04,0,.05-.01c.01,0,.05-.03,.13-.06,.07-.03,.14-.06,.22-.09,.07-.03,.15-.07,.23-.11,.08-.05,.17-.1,.25-.16,.08-.06,.16-.12,.23-.2,.07-.08,.14-.16,.2-.24,.06-.09,.11-.18,.14-.28,.04-.1,.05-.22,.05-.33V8.41c0-.33-.13-.61-.37-.86-.25-.25-.5-.41-.73-.49l-.39-.14v-.57c-.01-.11,.03-.2,.11-.27,.08-.07,.2-.1,.34-.1h4.69c.41,0,.61,.16,.61,.49v7.78l4.83-7.9c.14-.25,.38-.37,.72-.37h4.01c.12,0,.23,.04,.32,.11,.09,.08,.14,.16,.14,.26v.57c-.89,.38-1.49,.86-1.82,1.43l-4.26,6.95,4.69,8.36h0Z"/>
</svg>